<svg id="Layer_1" data-name="Layer 1" xmlns="http://www.w3.org/2000/svg" viewBox="0 0 450 300"><defs><style>.cls-1{fill:#232323;}</style></defs><path class="cls-1" d="M213,55.31,179,149.3l-34.09,94a5,5,0,0,0,4.7,6.71H300.44a5,5,0,0,0,4.7-6.71l-34.09-94L237,55.31A8,8,0,0,0,229.4,50h-8.8A8,8,0,0,0,213,55.31Z"/><path class="cls-1" d="M58.68,57.52v177.6a5,5,0,0,0,9,3l69.23-91.35,69.24-91.35A3.39,3.39,0,0,0,203.43,50H66.2a7.51,7.51,0,0,0-7.52,7.52Z"/><path class="cls-1" d="M243.86,55.44l69.24,91.35,69.23,91.35a5,5,0,0,0,9-3V57.52A7.51,7.51,0,0,0,383.8,50H246.57a3.39,3.39,0,0,0-2.71,5.44Z"/></svg>