<svg id="Layer_1" data-name="Layer 1" xmlns="http://www.w3.org/2000/svg" viewBox="0 0 1475 300"><defs><style>.cls-1{fill:#232323;}</style></defs><path class="cls-1" d="M221,55.31l-34.09,94-34.09,94a5,5,0,0,0,4.71,6.71H308.36a5,5,0,0,0,4.71-6.71L279,149.3l-34.09-94A8.06,8.06,0,0,0,237.32,50h-8.79A8.06,8.06,0,0,0,221,55.31Z"/><path class="cls-1" d="M66.6,57.52v177.6a5,5,0,0,0,9,3l69.24-91.35,69.23-91.35a3.39,3.39,0,0,0-2.7-5.44H74.12a7.51,7.51,0,0,0-7.52,7.52Z"/><path class="cls-1" d="M251.79,55.44,321,146.79l69.24,91.35a5,5,0,0,0,9-3V57.52A7.53,7.53,0,0,0,391.73,50H254.49a3.39,3.39,0,0,0-2.7,5.44Z"/><path class="cls-1" d="M523.52,138v16H472.63V59.67H492V138h31.53Z"/><path class="cls-1" d="M616.24,73.67a45.36,45.36,0,0,1,9,15.07,54.44,54.44,0,0,1,3,18.57,48.43,48.43,0,0,1-14.09,34.31,47.87,47.87,0,0,1-34.11,14.17,49.41,49.41,0,0,1-34.94-14.06,48,48,0,0,1-14.26-34.42,48.66,48.66,0,0,1,49.48-49.47,48.16,48.16,0,0,1,35.9,15.83ZM550.66,107A32,32,0,0,0,559,129.08a28.37,28.37,0,0,0,41.22,0,31.3,31.3,0,0,0,8.39-21.68c0-9.12-3-17-8.16-22.67a27.5,27.5,0,0,0-20.68-9A28,28,0,0,0,559,84.68C553.77,90.24,550.66,98.05,550.66,107Z"/><path class="cls-1" d="M665.29,154H645.92V59.67H665l19.72,29.41,19.72,29.4V59.67h19.37V154H704.87l-19.79-29.83L665.29,94.31V154Z"/><path class="cls-1" d="M838.53,101.09v5.09a52.59,52.59,0,0,1-3.3,19.38,46,46,0,0,1-10.41,15.67,49.9,49.9,0,0,1-16,10.84,48.37,48.37,0,0,1-18.81,3.72c-13.86,0-26-5.23-34.64-13.94S741.56,121,741.56,107c0-14.07,5.16-26.36,13.78-35.15s20.71-14,34.57-14a49.61,49.61,0,0,1,21.36,4.7,47.06,47.06,0,0,1,16.8,13.39l-7.28,5.73-7.28,5.72a34.79,34.79,0,0,0-10.69-8.94,26.87,26.87,0,0,0-12.49-2.79,28,28,0,0,0-20.76,9A32.55,32.55,0,0,0,761.21,107a32.06,32.06,0,0,0,8.57,22.19,28.65,28.65,0,0,0,21,9.05,29,29,0,0,0,11.7-2.51,26,26,0,0,0,9.36-7,22,22,0,0,0,3.38-5,39.63,39.63,0,0,0,2.42-6.84H791.32V101.09h47.21Z"/><path class="cls-1" d="M978.89,141.52a53.18,53.18,0,0,1-16.36,10.95,48.52,48.52,0,0,1-18.7,3.32,49,49,0,0,1-19-3.56,40.88,40.88,0,0,1-14.77-10.57,48.23,48.23,0,0,1-9.38-15.78A54.77,54.77,0,0,1,897.33,107c0-14.35,4.87-26.65,13.16-35.36s20-13.83,33.63-13.83c7.28,0,13.39,1,19.08,3.41s10.95,6.13,16.54,11.57l-6.29,6.36-6.29,6.36a41.18,41.18,0,0,0-10.92-7.47,28.2,28.2,0,0,0-31.4,6.34c-5,5.44-7.86,13.15-7.86,22.19s3,16.86,8.2,22.41a28,28,0,0,0,20.92,8.83,26.07,26.07,0,0,0,21.06-9.61l5.86,6.64Z"/><path class="cls-1" d="M1072.61,73.67a45.5,45.5,0,0,1,9,15.07,54.44,54.44,0,0,1,3,18.57,48.46,48.46,0,0,1-14.08,34.31,47.88,47.88,0,0,1-34.12,14.17,49.38,49.38,0,0,1-34.93-14.06,48,48,0,0,1-14.26-34.42,48.64,48.64,0,0,1,49.47-49.47,48.2,48.2,0,0,1,35.91,15.83ZM1007,107a32,32,0,0,0,8.34,22.05,28.37,28.37,0,0,0,41.22,0,31.3,31.3,0,0,0,8.39-21.68c0-9.12-3-17-8.16-22.67a27.48,27.48,0,0,0-20.67-9,28.06,28.06,0,0,0-20.82,8.89C1010.13,90.24,1007,98.05,1007,107Z"/><path class="cls-1" d="M1119.81,114.94a45.25,45.25,0,0,0,1,10.53,15.8,15.8,0,0,0,3.28,6.72,15.06,15.06,0,0,0,5.68,4.22,18.49,18.49,0,0,0,15.33-.19,15,15,0,0,0,5.85-4.74,16.27,16.27,0,0,0,2.9-6.48,49.58,49.58,0,0,0,.78-10.2V59.67h19.5v54.57a60.79,60.79,0,0,1-2.28,17.81,33.09,33.09,0,0,1-7,12.72,31.91,31.91,0,0,1-11.89,8.16,41.28,41.28,0,0,1-15.39,2.86,42.66,42.66,0,0,1-16.08-3,33.57,33.57,0,0,1-12.47-8.68,29.4,29.4,0,0,1-6.52-12c-1.36-4.79-2-10.55-2-17.83V59.67h19.36v55.27Z"/><path class="cls-1" d="M1214.8,154h-19.37V59.67h29.13c11.66,0,20.63,2.58,26.69,7.58s9.21,12.43,9.21,22.11c0,7.42-2,13.6-5.71,18.39s-9.35,8.18-16.62,10l13,18.09,13,18.1h-23.46l-12.94-18.73L1214.8,116.5V154Zm8.76-48.77c5.52,0,9.83-1.34,12.76-3.87s4.49-6.24,4.49-11c0-4.53-1.48-8.2-4.17-10.75s-6.57-3.95-11.38-3.95H1214.8v29.54h8.76Z"/><path class="cls-1" d="M1293.25,126.39v1.27a10.21,10.21,0,0,0,3.68,7.9,15,15,0,0,0,18,.23,9,9,0,0,0,2.57-11.31,10,10,0,0,0-2.81-3.32,17.82,17.82,0,0,0-3.87-2.29c-1.65-.75-3.91-1.59-7.58-2.94-10.32-3.67-17.32-7.45-21.74-12.12s-6.25-10.21-6.25-17.42c0-8.55,3.14-15.69,8.6-20.69s13.24-7.86,22.5-7.86,16.75,2.68,22.21,7.63,8.81,12.16,9.59,21.2h-19.51c-.35-4-1.51-6.89-3.55-8.83s-4.93-2.9-8.74-2.9a12.79,12.79,0,0,0-8.4,2.72,9.63,9.63,0,0,0-1.73,12.26,11.91,11.91,0,0,0,4.33,3.82,36.78,36.78,0,0,0,3.87,1.91c1.57.67,3.69,1.48,7.16,2.76a101.94,101.94,0,0,1,12.15,5.17,32.16,32.16,0,0,1,7.5,5.29,23.22,23.22,0,0,1,5.6,8.16,26.62,26.62,0,0,1,1.89,10.07c0,8.62-3.25,15.8-8.94,20.81s-13.82,7.88-23.57,7.88c-9.9,0-17.89-2.82-23.38-7.91s-8.5-12.44-8.43-21.49h18.8Z"/><path class="cls-1" d="M1375.32,98.69h33.08v15.83h-33.08v23.61h33.08V154H1356V59.67h52.45V75.51h-33.08V98.69Z"/><path class="cls-1" d="M506.79,235.07a22.55,22.55,0,0,1-2.74,3.21,16,16,0,0,1-2.94,2.13,19.43,19.43,0,0,1-5.09,2.1,22.8,22.8,0,0,1-5.66.71,21.79,21.79,0,0,1-8.63-1.71,19.36,19.36,0,0,1-6.84-4.93,24,24,0,0,1-4.42-7.72,27.69,27.69,0,0,1-1.6-9.26A25,25,0,0,1,475,202.65a21.15,21.15,0,0,1,24.43-4.74,22.09,22.09,0,0,1,7.4,6.15l-1.44,1.17-1.44,1.16a34.43,34.43,0,0,0-2.48-2.54,17.13,17.13,0,0,0-2-1.57,16.14,16.14,0,0,0-4.35-2.07,16.57,16.57,0,0,0-4.82-.73,16.19,16.19,0,0,0-12.44,5.73,21.92,21.92,0,0,0-4.94,14.46,21.44,21.44,0,0,0,5,14.33,16.52,16.52,0,0,0,12.6,5.66,15,15,0,0,0,7.24-1.69,19.67,19.67,0,0,0,6.17-5.43l1.44,1.26Z"/><path class="cls-1" d="M567.63,203.93a19.7,19.7,0,0,1,3.81,7,30.72,30.72,0,0,1,1.25,9.19,25.43,25.43,0,0,1-2,10.07,20.21,20.21,0,0,1-5.65,7.66,23.62,23.62,0,0,1-6.74,4,21,21,0,0,1-7.42,1.39,21.51,21.51,0,0,1-9.65-2.36,22.29,22.29,0,0,1-7.74-6.41,20.48,20.48,0,0,1-3.24-6.55,28,28,0,0,1-1.14-8.09,27.12,27.12,0,0,1,1.69-9.84,21.32,21.32,0,0,1,5-7.69,22.23,22.23,0,0,1,7.06-4.69,21,21,0,0,1,8.13-1.67,20.64,20.64,0,0,1,9,2.1A23.35,23.35,0,0,1,567.63,203.93Zm-34.5,15.6a21.6,21.6,0,0,0,5,14.45,16.63,16.63,0,0,0,12.74,5.68A17.55,17.55,0,0,0,558,238.1a18.1,18.1,0,0,0,6-4.33,18.88,18.88,0,0,0,3.41-6.2,24.13,24.13,0,0,0,1.31-7.7,25.84,25.84,0,0,0-1.32-8.72,17,17,0,0,0-4.15-6.47,18.86,18.86,0,0,0-5.74-3.81,16.81,16.81,0,0,0-19.3,4.3A21.34,21.34,0,0,0,533.13,219.53Z"/><path class="cls-1" d="M604.26,242.39h-3.9V196.74h3.22l13.52,18.72,13.52,18.72V196.74h3.9v45.65h-2.94l-13.66-19-13.66-19v38Z"/><path class="cls-1" d="M665.82,230.76a15.37,15.37,0,0,0,.4,3,8.62,8.62,0,0,0,.9,2.22,7.22,7.22,0,0,0,3,2.76,10.42,10.42,0,0,0,4.63,1,10.77,10.77,0,0,0,7.39-2.57,8.9,8.9,0,0,0,2.81-6.73,6.66,6.66,0,0,0-2.2-5.39c-1.58-1.44-4.13-2.62-8-3.85A51.58,51.58,0,0,1,669,219a11.53,11.53,0,0,1-3.09-2.13,10.21,10.21,0,0,1-2.59-3.69A13.06,13.06,0,0,1,666,199.41a13,13,0,0,1,9.28-3.49,11.79,11.79,0,0,1,12.6,12.59H684.1a15.57,15.57,0,0,0-.31-3.13,6.91,6.91,0,0,0-.92-2.21,7.54,7.54,0,0,0-3.12-2.75,10.25,10.25,0,0,0-4.55-1,8.9,8.9,0,0,0-6.37,2.49,8.78,8.78,0,0,0-2.52,6.34,8.51,8.51,0,0,0,.64,3.32,6.44,6.44,0,0,0,1.89,2.5,11.5,11.5,0,0,0,2.73,1.59c1.25.55,3,1.18,5.62,2.1a39.76,39.76,0,0,1,5.51,2.33,11.75,11.75,0,0,1,3.25,2.53,11.33,11.33,0,0,1,2.07,3.57A12.9,12.9,0,0,1,685,239.64a14.1,14.1,0,0,1-9.82,3.58,16.81,16.81,0,0,1-5.81-.9,9.74,9.74,0,0,1-4.11-2.8,11.92,11.92,0,0,1-2.23-3.6,11.27,11.27,0,0,1-.78-4.07v-1.09h3.62Z"/><path class="cls-1" d="M719.34,224.12a28.09,28.09,0,0,0,.81,7.74,9.14,9.14,0,0,0,2.75,4.51,12.82,12.82,0,0,0,4.09,2.36,13.8,13.8,0,0,0,4.74.93,13.39,13.39,0,0,0,4.71-.94,14.08,14.08,0,0,0,4.19-2.48,9.59,9.59,0,0,0,3-4.52,27.9,27.9,0,0,0,.75-7.81V196.74h4.1v27.38a30.57,30.57,0,0,1-.83,8.2,13.87,13.87,0,0,1-3,5.49,15,15,0,0,1-5.53,4,18.74,18.74,0,0,1-14.43-.09,15.64,15.64,0,0,1-5.71-4.26,12.82,12.82,0,0,1-2.77-5.22,32.8,32.8,0,0,1-.72-8.13V196.74h3.9v27.38Z"/><path class="cls-1" d="M798.46,238.49v3.9h-20.4V196.74H782v41.75h16.5Z"/><path class="cls-1" d="M831.25,242.39h-3.9V200.23h-12v-3.49h27.86v3.49h-12v42.16Z"/><path class="cls-1" d="M872.36,242.39h-3.9V196.74h3.9v45.65Z"/><path class="cls-1" d="M906.33,242.39h-3.9V196.74h3.22l13.52,18.72,13.52,18.72V196.74h3.9v45.65h-3L920,223.4l-13.66-19v38Z"/><path class="cls-1" d="M1007.08,218.16V221a27.54,27.54,0,0,1-.58,5.91,21.32,21.32,0,0,1-36.19,9.71,24.28,24.28,0,0,1-6.22-16.85c0-7,2.28-13,6.18-17.17a21.22,21.22,0,0,1,15.93-6.65,20.25,20.25,0,0,1,9.06,2,21.76,21.76,0,0,1,7.3,6l-1.43,1.2-1.44,1.2c-1-1-1.64-1.76-2.24-2.34a11.49,11.49,0,0,0-1.73-1.42,15.49,15.49,0,0,0-4.55-2.35,16.53,16.53,0,0,0-5.1-.8,17,17,0,0,0-12.83,5.77,22.54,22.54,0,0,0-.09,28.64,16.6,16.6,0,0,0,12.58,5.77,18.43,18.43,0,0,0,14.64-7.81,15.14,15.14,0,0,0,2.19-4.53,22.55,22.55,0,0,0,.76-5.67H985.86v-3.49h21.22Z"/></svg>