<svg id="Layer_1" data-name="Layer 1" xmlns="http://www.w3.org/2000/svg" viewBox="0 0 1000 550"><defs><style>.cls-1{fill:#123675;}</style></defs><path class="cls-1" d="M488.56,67.58,423.34,247.39a4.79,4.79,0,0,0,4.5,6.42H572.16a4.79,4.79,0,0,0,4.5-6.42L511.44,67.58a7.7,7.7,0,0,0-7.24-5.08h-8.4A7.7,7.7,0,0,0,488.56,67.58Z"/><path class="cls-1" d="M340.91,69.69V239.57a4.78,4.78,0,0,0,8.6,2.89L482,67.7a3.24,3.24,0,0,0-2.59-5.2H348.1A7.19,7.19,0,0,0,340.91,69.69Z"/><path class="cls-1" d="M518,67.7,650.49,242.46a4.78,4.78,0,0,0,8.6-2.89V69.69a7.19,7.19,0,0,0-7.19-7.19H520.63A3.24,3.24,0,0,0,518,67.7Z"/><path class="cls-1" d="M101.13,383.61v15.28H52.46V308.7H71v74.91Z"/><path class="cls-1" d="M189.83,322.09c7.7,8.65,11.49,19.06,11.49,32.18a46.13,46.13,0,0,1-46.11,46.37c-26.36,0-47.05-20.41-47.05-46.37,0-26.77,20.55-47.32,47.32-47.32A46.08,46.08,0,0,1,189.83,322.09ZM127.09,354c0,16.76,12,29.61,27.72,29.61s27.72-12.85,27.72-29.21c0-17.44-11.63-30.28-27.59-30.28S127.09,336.83,127.09,354Z"/><path class="cls-1" d="M236.74,398.89H218.22V308.7h18.25L274.19,365V308.7h18.53v90.19H274.6l-37.86-57.06Z"/><path class="cls-1" d="M402.45,348.32v4.87c0,13.92-4.06,24.33-13.11,33.53a46.22,46.22,0,0,1-33.27,13.92c-26.5,0-46.37-20-46.37-46.64,0-26.91,19.74-47.05,46.24-47.05a45.8,45.8,0,0,1,36.5,17.3L378.52,335.2c-6.63-7.84-13.25-11.22-22.18-11.22-15.81,0-27.85,13-27.85,30,0,16.76,12.44,29.88,28.26,29.88a26.59,26.59,0,0,0,20.14-9.06c2.71-3.11,4.06-5.95,5.55-11.36H357.29V348.32Z"/><path class="cls-1" d="M536.71,387c-10.41,9.73-20.15,13.65-33.53,13.65s-24.34-4.59-32.32-13.52c-7.71-8.51-12.17-20.68-12.17-33.12,0-27.45,18.66-47.05,44.76-47.05,13.92,0,23.39,3.92,34.07,14.33l-12,12.17c-7.31-6.63-13.53-9.33-21.1-9.33-15.82,0-26.9,12.17-26.9,29.47s11.62,29.88,27.85,29.88c8.25,0,14.6-2.84,20.15-9.19Z"/><path class="cls-1" d="M626.35,322.09c7.71,8.65,11.49,19.06,11.49,32.18a46.13,46.13,0,0,1-46.1,46.37c-26.37,0-47.06-20.41-47.06-46.37C544.68,327.5,565.23,307,592,307A46,46,0,0,1,626.35,322.09ZM563.61,354c0,16.76,12,29.61,27.72,29.61s27.72-12.85,27.72-29.21c0-17.44-11.63-30.28-27.58-30.28S563.61,336.83,563.61,354Z"/><path class="cls-1" d="M671.51,361.57c0,8.38,1.08,13,4,16.49,2.7,3.39,7.57,5.55,12.58,5.55,5.27,0,10.41-2.44,13.11-6.22s3.52-7.57,3.52-15.95V308.7h18.66v52.19c0,13.25-2.84,22.45-8.93,29.21S699,400.64,688.41,400.64c-11,0-21-4.05-27.32-11.22-5.81-6.49-8.11-14.6-8.11-28.53V308.7h18.53Z"/><path class="cls-1" d="M762.36,398.89H743.84V308.7h27.85c22.31,0,34.35,9.87,34.35,28.4,0,14.19-7.44,23.66-21.37,27.17l24.88,34.62H787.11l-24.75-35.83Zm8.39-46.65c10.54,0,16.49-5.14,16.49-14.2,0-8.65-5.68-14.06-14.87-14.06h-10v28.26Z"/><path class="cls-1" d="M837.4,372.52v1.22c0,6.08,5.28,10.55,12.31,10.55,6.76,0,11.9-4.2,11.9-9.61a9,9,0,0,0-3.65-7.16c-2.3-1.76-3.93-2.44-11-5-19.74-7-26.77-14.47-26.77-28.26,0-16.36,12-27.31,29.75-27.31s28.93,10.27,30.42,27.58H861.74c-.67-7.57-4.46-11.22-11.76-11.22-6.63,0-11.09,3.78-11.09,9.46,0,3.65,1.89,6.49,5.54,8.52,2.44,1.35,3.92,2,10.55,4.46,9.87,3.65,14.87,6.22,18.79,10a23.3,23.3,0,0,1,7.17,17.44c0,16.49-12.44,27.44-31.1,27.44-18.93,0-30.55-10.81-30.42-28.12Z"/><path class="cls-1" d="M915.91,346h31.63v15.14H915.91v22.58h31.63v15.15H897.38V308.7h50.16v15.15H915.91Z"/><path class="cls-1" d="M278.86,479.71a15.81,15.81,0,0,1-5.43,5.11,20.31,20.31,0,0,1-10.28,2.68,19.31,19.31,0,0,1-14.8-6.35,25.19,25.19,0,0,1-5.76-16.24c0-13,8.71-22.65,20.5-22.65,6.41,0,11.52,2.49,15.77,7.79l-2.75,2.22a22.71,22.71,0,0,0-4.25-3.92,15.88,15.88,0,0,0-8.77-2.69c-9.56,0-16.63,8.19-16.63,19.32s7.13,19.12,16.82,19.12c5.17,0,9-2,12.83-6.81Z"/><path class="cls-1" d="M337.06,449.92c3.27,3.86,4.85,8.9,4.85,15.52,0,7-2.56,13-7.27,16.95a20.63,20.63,0,0,1-30.19-3.27,23.29,23.29,0,0,1-4.19-14c0-6.94,2.16-12.57,6.42-16.76a20.3,20.3,0,0,1,30.38,1.57Zm-33,14.93c0,11.19,7.07,19.25,17,19.25a17.21,17.21,0,0,0,12.57-5.63c2.68-3.08,4.52-8.32,4.52-13.3,0-6.41-1.64-11-5.24-14.53a17.38,17.38,0,0,0-11.72-5C311.33,445.66,304.06,453.78,304.06,464.85Z"/><path class="cls-1" d="M372.1,486.71h-3.73V443h3.08l25.86,35.82V443H401v43.67h-2.81L372.1,450.38Z"/><path class="cls-1" d="M431,475.58a10.12,10.12,0,0,0,1.24,5c1.31,2.23,4,3.6,7.34,3.6,5.82,0,9.75-3.6,9.75-8.9,0-4.32-2.35-6.48-9.75-8.84-5.31-1.77-6.68-2.43-8.52-4.13a10.6,10.6,0,0,1-3.34-8.05c0-7.07,5.05-12,12.31-12s12.05,4.71,12.05,12h-3.6c-.06-2.55-.33-3.73-1.18-5.1a8.4,8.4,0,0,0-7.33-3.6,8.2,8.2,0,0,0-8.51,8.44,7,7,0,0,0,2.42,5.57c1.37,1.11,2.94,1.77,8,3.53,4.58,1.64,6.68,2.75,8.38,4.65a11.47,11.47,0,0,1,2.68,7.47c0,7.2-5.37,12.24-13,12.24-4.25,0-7.4-1.11-9.49-3.54a11.13,11.13,0,0,1-2.88-7.33v-1.05Z"/><path class="cls-1" d="M482.18,469.23c0,6.35.92,9.5,3.41,11.72a12.78,12.78,0,0,0,17-.13c2.82-2.62,3.54-5,3.54-11.78V443H510v26.19c0,6.68-.92,9.89-3.67,13.1a15.65,15.65,0,0,1-12.11,5.17,15.93,15.93,0,0,1-12.44-5.5c-2.62-3.14-3.34-5.89-3.34-12.77V443h3.73Z"/><path class="cls-1" d="M557.85,483v3.73H538.34V443h3.73V483Z"/><path class="cls-1" d="M589.22,486.71h-3.73V446.38H574V443h26.65v3.34H589.22Z"/><path class="cls-1" d="M628.55,486.71h-3.73V443h3.73Z"/><path class="cls-1" d="M661,486.71h-3.73V443h3.08l25.86,35.82V443H690v43.67h-2.81L661,450.38Z"/><path class="cls-1" d="M757.41,463.54v2.68a21.94,21.94,0,0,1-2.29,10.48,19.6,19.6,0,0,1-17.81,10.8c-12.18,0-21-9.43-21-22.46,0-13.42,8.71-22.78,21.15-22.78A19.3,19.3,0,0,1,753.09,450l-2.75,2.29a22.39,22.39,0,0,0-3.8-3.6,15.45,15.45,0,0,0-9.23-3c-9.76,0-17.22,8.32-17.22,19.25S727.42,484.1,737,484.1a17.63,17.63,0,0,0,14-7.47c2-2.88,2.69-5.43,2.82-9.75h-16.7v-3.34Z"/></svg>