<svg id="Layer_1" data-name="Layer 1" xmlns="http://www.w3.org/2000/svg" viewBox="0 0 450 300"><defs><style>.cls-1{fill:#fff;}</style></defs><path class="cls-1" d="M221,50a8,8,0,0,0-7.56,5.29l-34.29,94-34.28,94a5,5,0,0,0,4.7,6.71H300.44a5,5,0,0,0,4.7-6.71l-34.29-94-34.28-94A8,8,0,0,0,229,50h-8Z"/><path class="cls-1" d="M58.68,57.52v177.6a5,5,0,0,0,9,3l68.65-91.36L205,55.43A3.4,3.4,0,0,0,202.27,50H66.2a7.51,7.51,0,0,0-7.52,7.52Z"/><path class="cls-1" d="M247.56,50a3.4,3.4,0,0,0-2.71,5.43l68.74,91.36,68.74,91.35a5,5,0,0,0,9-3V57.52A7.51,7.51,0,0,0,383.8,50H247.56Z"/></svg>